<?xml version="1.0" encoding="UTF-8" standalone="no"?>
<!-- Created with Inkscape (http://www.inkscape.org/) -->

<svg
   xmlns:dc="http://purl.org/dc/elements/1.1/"
   xmlns:cc="http://creativecommons.org/ns#"
   xmlns:rdf="http://www.w3.org/1999/02/22-rdf-syntax-ns#"
   xmlns:svg="http://www.w3.org/2000/svg"
   xmlns="http://www.w3.org/2000/svg"
   version="1.1"
   width="140"
   height="140"
   viewBox="0 0 140 140"
   id="Layer_1"
   xml:space="preserve"><metadata
     id="metadata35"><rdf:RDF><cc:Work
         rdf:about=""><dc:format>image/svg+xml</dc:format><dc:type
           rdf:resource="http://purl.org/dc/dcmitype/StillImage" /><dc:title></dc:title></cc:Work></rdf:RDF></metadata><defs
     id="defs33" /><g
     id="g3"><g
       id="g9"><path
         d="m 97.587,105.807 c -4.314,0 -7.952,-3.408 -7.952,-7.76 V 94.63 c 0,-3.16 -2.672,-5.931 -6.048,-5.931 -3.384,0 -5.952,2.668 -5.952,5.826 v 3.419 c 0,4.409 -3.68,7.862 -8.048,7.862 -4.314,0 -7.952,-3.408 -7.952,-7.76 V 94.63 c 0,-3.16 -2.672,-5.931 -6.048,-5.931 -3.384,0 -5.952,2.668 -5.952,5.826 v 3.419 c 0,4.409 -3.376,7.838 -7.744,7.838 -4.313,0 -7.947,-3.781 -7.95,-7.781 H 33.635 V 63.409 c 0,-19.638 15.921,-35.021 36,-35.021 20.079,0 36,15.383 36,35.021 v 34.535 c 0,4.408 -3.68,7.863 -8.048,7.863 z"
         id="path11"
         style="fill:#f2f2f2" /><g
         id="g13"><path
           d="m 53.954,88.698 c -3.385,0 -6.319,2.668 -6.319,5.827 v 3.418 c 0,4.074 -2.848,7.328 -6.741,7.799 0.317,0.038 0.631,0.064 0.958,0.064 4.368,0 7.783,-3.455 7.783,-7.863 v -3.418 c 0,-2.85 2.335,-5.292 5.271,-5.745 -0.315,-0.05 -0.627,-0.082 -0.952,-0.082 z"
           id="path15"
           style="fill:#e6e6e6" /><path
           d="m 81.986,88.698 c -3.384,0 -6.352,2.668 -6.352,5.827 v 3.418 c 0,4.074 -2.817,7.328 -6.709,7.799 0.315,0.038 0.613,0.064 0.941,0.064 4.368,0 7.768,-3.455 7.768,-7.863 v -3.418 c 0,-2.85 2.352,-5.292 5.289,-5.745 -0.316,-0.05 -0.611,-0.082 -0.937,-0.082 z"
           id="path17"
           style="fill:#e6e6e6" /></g><path
         d="m 69.938,28.387 c -4.601,0 -8.913,0.815 -12.919,2.296 1.703,-0.234 3.238,-0.361 5.021,-0.361 20.079,0 35.596,15.382 35.596,35.021 v 34.535 c 0,2.215 -0.626,4.188 -2.04,5.604 0.703,0.209 1.46,0.322 2.241,0.322 4.367,0 7.799,-3.455 7.799,-7.863 V 63.407 C 105.635,43.77 90.018,28.387 69.938,28.387 z"
         id="path19"
         style="fill:#e6e6e6" /><circle
         cx="58.387001"
         cy="51.612999"
         r="3.8710001"
         id="circle21"
         style="fill:#cccccc" /><circle
         cx="81.612999"
         cy="51.612999"
         r="3.8710001"
         id="circle23"
         style="fill:#cccccc" /><path
         d="m 58.387,56.452 c -2.668,0 -4.838,-2.171 -4.838,-4.839 0,-2.668 2.17,-4.838 4.838,-4.838 2.668,0 4.839,2.17 4.839,4.838 0,2.668 -2.171,4.839 -4.839,4.839 z m 0,-7.743 c -1.601,0 -2.903,1.302 -2.903,2.903 0,1.601 1.304,2.903 2.903,2.903 1.602,0 2.903,-1.302 2.903,-2.903 0,-1.601 -1.302,-2.903 -2.903,-2.903 z"
         id="path25"
         style="fill:#b3b3b3" /><path
         d="m 81.613,56.452 c -2.669,0 -4.839,-2.171 -4.839,-4.839 0,-2.668 2.17,-4.838 4.839,-4.838 2.669,0 4.839,2.17 4.839,4.838 0,2.668 -2.171,4.839 -4.839,4.839 z m 0,-7.743 c -1.602,0 -2.902,1.302 -2.902,2.903 0,1.601 1.302,2.903 2.902,2.903 1.6,0 2.902,-1.302 2.902,-2.903 0.001,-1.601 -1.302,-2.903 -2.902,-2.903 z"
         id="path27"
         style="fill:#b3b3b3" /><path
         d="m 70,76.773 c -8.141,0 -14.518,-6.375 -14.518,-14.517 0,-0.535 0.435,-0.968 0.969,-0.968 0.534,0 0.968,0.433 0.968,0.968 0,7.055 5.525,12.581 12.581,12.581 7.055,0 12.581,-5.526 12.581,-12.581 0,-0.535 0.433,-0.968 0.968,-0.968 0.534,0 0.967,0.433 0.967,0.968 0,8.142 -6.376,14.517 -14.516,14.517 z"
         id="path29"
         style="fill:#b3b3b3" /></g></g></svg>