<?xml version="1.0" ?><!DOCTYPE svg  PUBLIC '-//W3C//DTD SVG 1.1//EN'  'http://www.w3.org/Graphics/SVG/1.1/DTD/svg11.dtd'><svg height="140px" id="Layer_1" style="enable-background:new 0 0 140 140;" version="1.1" viewBox="0 0 140 140" width="140px" xml:space="preserve" xmlns="http://www.w3.org/2000/svg" xmlns:xlink="http://www.w3.org/1999/xlink"><g><path d="M70,130c-33.084,0-60-26.916-60-60s26.916-60,60-60s60,26.916,60,60S103.084,130,70,130z" style="fill:#F2F2F2;"/><circle cx="70" cy="70" r="58.064" style="fill:#2E8677;"/><g><path d="M97.587,105.807c-4.314,0-7.952-3.408-7.952-7.76V94.63c0-3.16-2.672-5.931-6.048-5.931    c-3.384,0-5.952,2.668-5.952,5.826v3.419c0,4.409-3.68,7.862-8.048,7.862c-4.314,0-7.952-3.408-7.952-7.76V94.63    c0-3.16-2.672-5.931-6.048-5.931c-3.384,0-5.952,2.668-5.952,5.826v3.419c0,4.409-3.376,7.838-7.744,7.838    c-4.313,0-7.947-3.781-7.95-7.781h-0.306V63.409c0-19.638,15.921-35.021,36-35.021s36,15.383,36,35.021v34.535    C105.635,102.352,101.955,105.807,97.587,105.807z" style="fill:#F2F2F2;"/><g><path d="M53.954,88.698c-3.385,0-6.319,2.668-6.319,5.827v3.418c0,4.074-2.848,7.328-6.741,7.799     c0.317,0.038,0.631,0.064,0.958,0.064c4.368,0,7.783-3.455,7.783-7.863v-3.418c0-2.85,2.335-5.292,5.271-5.745     C54.591,88.73,54.279,88.698,53.954,88.698z" style="fill:#E6E6E6;"/><path d="M81.986,88.698c-3.384,0-6.352,2.668-6.352,5.827v3.418c0,4.074-2.817,7.328-6.709,7.799     c0.315,0.038,0.613,0.064,0.941,0.064c4.368,0,7.768-3.455,7.768-7.863v-3.418c0-2.85,2.352-5.292,5.289-5.745     C82.607,88.73,82.312,88.698,81.986,88.698z" style="fill:#E6E6E6;"/></g><path d="M69.938,28.387c-4.601,0-8.913,0.815-12.919,2.296c1.703-0.234,3.238-0.361,5.021-0.361    c20.079,0,35.596,15.382,35.596,35.021v34.535c0,2.215-0.626,4.188-2.04,5.604c0.703,0.209,1.46,0.322,2.241,0.322    c4.367,0,7.799-3.455,7.799-7.863V63.407C105.635,43.77,90.018,28.387,69.938,28.387z" style="fill:#E6E6E6;"/><circle cx="58.387" cy="51.613" r="3.871" style="fill:#CCCCCC;"/><circle cx="81.613" cy="51.613" r="3.871" style="fill:#CCCCCC;"/><path d="M58.387,56.452c-2.668,0-4.838-2.171-4.838-4.839s2.17-4.838,4.838-4.838s4.839,2.17,4.839,4.838    S61.055,56.452,58.387,56.452z M58.387,48.709c-1.601,0-2.903,1.302-2.903,2.903c0,1.601,1.304,2.903,2.903,2.903    c1.602,0,2.903-1.302,2.903-2.903C61.29,50.011,59.988,48.709,58.387,48.709z" style="fill:#B3B3B3;"/><path d="M81.613,56.452c-2.669,0-4.839-2.171-4.839-4.839s2.17-4.838,4.839-4.838s4.839,2.17,4.839,4.838    S84.281,56.452,81.613,56.452z M81.613,48.709c-1.602,0-2.902,1.302-2.902,2.903c0,1.601,1.302,2.903,2.902,2.903    c1.6,0,2.902-1.302,2.902-2.903C84.516,50.011,83.213,48.709,81.613,48.709z" style="fill:#B3B3B3;"/><path d="M70,76.773c-8.141,0-14.518-6.375-14.518-14.517c0-0.535,0.435-0.968,0.969-0.968    s0.968,0.433,0.968,0.968c0,7.055,5.525,12.581,12.581,12.581c7.055,0,12.581-5.526,12.581-12.581    c0-0.535,0.433-0.968,0.968-0.968c0.534,0,0.967,0.433,0.967,0.968C84.516,70.398,78.14,76.773,70,76.773z" style="fill:#B3B3B3;"/></g></g></svg>